<svg xmlns="http://www.w3.org/2000/svg" viewBox="0 0 440 400" width="440" height="400" font-size="12"><rect width="440" height="400" fill="#fff"/><rect x="54" y="40" width="368" height="314" fill="#fff" stroke="#9aa0a6" stroke-width="1"/><text x="220" y="16" text-anchor="middle" font-family="-apple-system,Segoe UI,Helvetica,Arial,sans-serif" font-size="13" font-weight="600" fill="#222222">Third rider JAAM — fits the 21 real descents, misses the gentle bulk</text><line x1="54.0" y1="40" x2="54.0" y2="354" stroke="#eef0f2" stroke-width="1"/><text x="54.0" y="370" text-anchor="middle" font-family="-apple-system,Segoe UI,Helvetica,Arial,sans-serif" font-size="11" fill="#222222">0</text><line x1="146.0" y1="40" x2="146.0" y2="354" stroke="#eef0f2" stroke-width="1"/><text x="146.0" y="370" text-anchor="middle" font-family="-apple-system,Segoe UI,Helvetica,Arial,sans-serif" font-size="11" fill="#222222">0.25</text><line x1="238.0" y1="40" x2="238.0" y2="354" stroke="#eef0f2" stroke-width="1"/><text x="238.0" y="370" text-anchor="middle" font-family="-apple-system,Segoe UI,Helvetica,Arial,sans-serif" font-size="11" fill="#222222">0.5</text><line x1="330.0" y1="40" x2="330.0" y2="354" stroke="#eef0f2" stroke-width="1"/><text x="330.0" y="370" text-anchor="middle" font-family="-apple-system,Segoe UI,Helvetica,Arial,sans-serif" font-size="11" fill="#222222">0.75</text><line x1="422.0" y1="40" x2="422.0" y2="354" stroke="#eef0f2" stroke-width="1"/><text x="422.0" y="370" text-anchor="middle" font-family="-apple-system,Segoe UI,Helvetica,Arial,sans-serif" font-size="11" fill="#222222">1</text><line x1="54" y1="324.6" x2="422" y2="324.6" stroke="#eef0f2" stroke-width="1"/><text x="46" y="328.6" text-anchor="end" font-family="-apple-system,Segoe UI,Helvetica,Arial,sans-serif" font-size="11" fill="#222222">-0.25</text><line x1="54" y1="275.5" x2="422" y2="275.5" stroke="#eef0f2" stroke-width="1"/><text x="46" y="279.5" text-anchor="end" font-family="-apple-system,Segoe UI,Helvetica,Arial,sans-serif" font-size="11" fill="#222222">0</text><line x1="54" y1="226.4" x2="422" y2="226.4" stroke="#eef0f2" stroke-width="1"/><text x="46" y="230.4" text-anchor="end" font-family="-apple-system,Segoe UI,Helvetica,Arial,sans-serif" font-size="11" fill="#222222">0.25</text><line x1="54" y1="177.4" x2="422" y2="177.4" stroke="#eef0f2" stroke-width="1"/><text x="46" y="181.4" text-anchor="end" font-family="-apple-system,Segoe UI,Helvetica,Arial,sans-serif" font-size="11" fill="#222222">0.5</text><line x1="54" y1="128.3" x2="422" y2="128.3" stroke="#eef0f2" stroke-width="1"/><text x="46" y="132.3" text-anchor="end" font-family="-apple-system,Segoe UI,Helvetica,Arial,sans-serif" font-size="11" fill="#222222">0.75</text><line x1="54" y1="79.3" x2="422" y2="79.3" stroke="#eef0f2" stroke-width="1"/><text x="46" y="83.3" text-anchor="end" font-family="-apple-system,Segoe UI,Helvetica,Arial,sans-serif" font-size="11" fill="#222222">1</text><text x="238" y="394" text-anchor="middle" font-family="-apple-system,Segoe UI,Helvetica,Arial,sans-serif" font-size="12" fill="#222222">ε_coast  (geometry-only prediction)</text><text x="14" y="197" text-anchor="middle" font-family="-apple-system,Segoe UI,Helvetica,Arial,sans-serif" font-size="12" fill="#222222" transform="rotate(-90 14 197)">ε_bal  (power-measured, rider 3)</text><path d="M54.0,275.5 L422.0,79.3" fill="none" stroke="#9aa0a6" stroke-width="1.2" stroke-dasharray="4 3"/><path d="M101.8,275.5 L422.0,104.8" fill="none" stroke="#009E73" stroke-width="2.0"/><circle cx="317.5" cy="292.2" r="2.8" fill="#9aa0a6" fill-opacity="0.2" stroke="none" stroke-width="0.8"/><circle cx="259.0" cy="252.3" r="3.6" fill="#9aa0a6" fill-opacity="0.2" stroke="none" stroke-width="0.8"/><circle cx="328.5" cy="229.0" r="3.0" fill="#9aa0a6" fill-opacity="0.2" stroke="none" stroke-width="0.8"/><circle cx="286.2" cy="259.4" r="2.8" fill="#9aa0a6" fill-opacity="0.2" stroke="none" stroke-width="0.8"/><circle cx="360.9" cy="229.4" r="2.9" fill="#9aa0a6" fill-opacity="0.2" stroke="none" stroke-width="0.8"/><circle cx="411.3" cy="252.7" r="3.1" fill="#9aa0a6" fill-opacity="0.2" stroke="none" stroke-width="0.8"/><circle cx="257.9" cy="206.6" r="3.0" fill="#D55E00" fill-opacity="0.55" stroke="none" stroke-width="0.8"/><circle cx="347.7" cy="212.7" r="3.0" fill="#9aa0a6" fill-opacity="0.2" stroke="none" stroke-width="0.8"/><circle cx="316.8" cy="277.7" r="2.8" fill="#9aa0a6" fill-opacity="0.2" stroke="none" stroke-width="0.8"/><circle cx="356.1" cy="205.6" r="2.9" fill="#9aa0a6" fill-opacity="0.2" stroke="none" stroke-width="0.8"/><circle cx="314.5" cy="252.5" r="2.8" fill="#9aa0a6" fill-opacity="0.2" stroke="none" stroke-width="0.8"/><circle cx="288.8" cy="268.8" r="3.2" fill="#9aa0a6" fill-opacity="0.2" stroke="none" stroke-width="0.8"/><circle cx="319.0" cy="257.8" r="3.0" fill="#9aa0a6" fill-opacity="0.2" stroke="none" stroke-width="0.8"/><circle cx="325.2" cy="252.7" r="2.8" fill="#9aa0a6" fill-opacity="0.2" stroke="none" stroke-width="0.8"/><circle cx="346.9" cy="251.0" r="2.9" fill="#9aa0a6" fill-opacity="0.2" stroke="none" stroke-width="0.8"/><circle cx="225.5" cy="271.0" r="3.4" fill="#D55E00" fill-opacity="0.55" stroke="none" stroke-width="0.8"/><circle cx="329.3" cy="258.0" r="3.2" fill="#9aa0a6" fill-opacity="0.2" stroke="none" stroke-width="0.8"/><circle cx="370.1" cy="246.3" r="2.9" fill="#9aa0a6" fill-opacity="0.2" stroke="none" stroke-width="0.8"/><circle cx="291.4" cy="294.3" r="2.8" fill="#9aa0a6" fill-opacity="0.2" stroke="none" stroke-width="0.8"/><circle cx="288.8" cy="292.8" r="2.8" fill="#9aa0a6" fill-opacity="0.2" stroke="none" stroke-width="0.8"/><circle cx="307.6" cy="234.7" r="3.1" fill="#9aa0a6" fill-opacity="0.2" stroke="none" stroke-width="0.8"/><circle cx="337.4" cy="215.1" r="2.9" fill="#9aa0a6" fill-opacity="0.2" stroke="none" stroke-width="0.8"/><circle cx="319.7" cy="253.1" r="2.8" fill="#9aa0a6" fill-opacity="0.2" stroke="none" stroke-width="0.8"/><circle cx="341.8" cy="217.4" r="3.0" fill="#9aa0a6" fill-opacity="0.2" stroke="none" stroke-width="0.8"/><circle cx="284.7" cy="267.8" r="2.8" fill="#9aa0a6" fill-opacity="0.2" stroke="none" stroke-width="0.8"/><circle cx="338.8" cy="210.7" r="3.0" fill="#9aa0a6" fill-opacity="0.2" stroke="none" stroke-width="0.8"/><circle cx="312.7" cy="221.7" r="2.7" fill="#9aa0a6" fill-opacity="0.2" stroke="none" stroke-width="0.8"/><circle cx="344.0" cy="186.6" r="2.9" fill="#9aa0a6" fill-opacity="0.2" stroke="none" stroke-width="0.8"/><circle cx="330.0" cy="257.8" r="2.8" fill="#9aa0a6" fill-opacity="0.2" stroke="none" stroke-width="0.8"/><circle cx="319.3" cy="269.6" r="2.8" fill="#9aa0a6" fill-opacity="0.2" stroke="none" stroke-width="0.8"/><circle cx="295.0" cy="233.1" r="2.7" fill="#9aa0a6" fill-opacity="0.2" stroke="none" stroke-width="0.8"/><circle cx="323.0" cy="268.2" r="3.0" fill="#9aa0a6" fill-opacity="0.2" stroke="none" stroke-width="0.8"/><circle cx="289.5" cy="250.6" r="3.1" fill="#9aa0a6" fill-opacity="0.2" stroke="none" stroke-width="0.8"/><circle cx="233.2" cy="246.7" r="3.5" fill="#9aa0a6" fill-opacity="0.2" stroke="none" stroke-width="0.8"/><circle cx="275.5" cy="249.8" r="2.8" fill="#9aa0a6" fill-opacity="0.2" stroke="none" stroke-width="0.8"/><circle cx="311.6" cy="227.0" r="2.8" fill="#9aa0a6" fill-opacity="0.2" stroke="none" stroke-width="0.8"/><circle cx="322.3" cy="272.6" r="3.0" fill="#9aa0a6" fill-opacity="0.2" stroke="none" stroke-width="0.8"/><circle cx="188.0" cy="219.6" r="4.9" fill="#D55E00" fill-opacity="0.55" stroke="none" stroke-width="0.8"/><circle cx="208.6" cy="213.9" r="2.9" fill="#9aa0a6" fill-opacity="0.2" stroke="none" stroke-width="0.8"/><circle cx="334.4" cy="209.6" r="2.8" fill="#9aa0a6" fill-opacity="0.2" stroke="none" stroke-width="0.8"/><circle cx="312.0" cy="254.7" r="2.8" fill="#9aa0a6" fill-opacity="0.2" stroke="none" stroke-width="0.8"/><circle cx="332.2" cy="233.3" r="3.0" fill="#9aa0a6" fill-opacity="0.2" stroke="none" stroke-width="0.8"/><circle cx="253.1" cy="218.8" r="3.9" fill="#9aa0a6" fill-opacity="0.2" stroke="none" stroke-width="0.8"/><circle cx="348.4" cy="269.8" r="2.8" fill="#9aa0a6" fill-opacity="0.2" stroke="none" stroke-width="0.8"/><circle cx="350.2" cy="276.7" r="3.0" fill="#9aa0a6" fill-opacity="0.2" stroke="none" stroke-width="0.8"/><circle cx="342.5" cy="263.3" r="2.9" fill="#9aa0a6" fill-opacity="0.2" stroke="none" stroke-width="0.8"/><circle cx="371.6" cy="280.6" r="2.9" fill="#9aa0a6" fill-opacity="0.2" stroke="none" stroke-width="0.8"/><circle cx="265.2" cy="201.3" r="4.1" fill="#9aa0a6" fill-opacity="0.2" stroke="none" stroke-width="0.8"/><circle cx="332.2" cy="217.4" r="2.9" fill="#9aa0a6" fill-opacity="0.2" stroke="none" stroke-width="0.8"/><circle cx="286.6" cy="270.6" r="2.7" fill="#9aa0a6" fill-opacity="0.2" stroke="none" stroke-width="0.8"/><circle cx="195.7" cy="219.6" r="4.5" fill="#D55E00" fill-opacity="0.55" stroke="none" stroke-width="0.8"/><circle cx="331.1" cy="254.3" r="3.0" fill="#9aa0a6" fill-opacity="0.2" stroke="none" stroke-width="0.8"/><circle cx="329.3" cy="256.5" r="2.8" fill="#9aa0a6" fill-opacity="0.2" stroke="none" stroke-width="0.8"/><circle cx="337.0" cy="225.3" r="2.8" fill="#9aa0a6" fill-opacity="0.2" stroke="none" stroke-width="0.8"/><circle cx="320.8" cy="257.2" r="3.0" fill="#9aa0a6" fill-opacity="0.2" stroke="none" stroke-width="0.8"/><circle cx="354.3" cy="211.1" r="3.0" fill="#9aa0a6" fill-opacity="0.2" stroke="none" stroke-width="0.8"/><circle cx="292.8" cy="217.6" r="3.2" fill="#9aa0a6" fill-opacity="0.2" stroke="none" stroke-width="0.8"/><circle cx="319.3" cy="227.4" r="2.9" fill="#9aa0a6" fill-opacity="0.2" stroke="none" stroke-width="0.8"/><circle cx="299.5" cy="148.7" r="2.9" fill="#9aa0a6" fill-opacity="0.2" stroke="none" stroke-width="0.8"/><circle cx="200.1" cy="224.5" r="7.7" fill="#D55E00" fill-opacity="0.55" stroke="none" stroke-width="0.8"/><circle cx="320.8" cy="281.8" r="3.2" fill="#9aa0a6" fill-opacity="0.2" stroke="none" stroke-width="0.8"/><circle cx="343.6" cy="244.9" r="3.2" fill="#9aa0a6" fill-opacity="0.2" stroke="none" stroke-width="0.8"/><circle cx="334.4" cy="204.8" r="2.8" fill="#9aa0a6" fill-opacity="0.2" stroke="none" stroke-width="0.8"/><circle cx="281.4" cy="224.3" r="2.7" fill="#9aa0a6" fill-opacity="0.2" stroke="none" stroke-width="0.8"/><circle cx="228.4" cy="228.8" r="5.3" fill="#9aa0a6" fill-opacity="0.2" stroke="none" stroke-width="0.8"/><circle cx="337.7" cy="269.6" r="2.9" fill="#9aa0a6" fill-opacity="0.2" stroke="none" stroke-width="0.8"/><circle cx="336.6" cy="219.4" r="3.0" fill="#9aa0a6" fill-opacity="0.2" stroke="none" stroke-width="0.8"/><circle cx="329.6" cy="265.7" r="2.9" fill="#9aa0a6" fill-opacity="0.2" stroke="none" stroke-width="0.8"/><circle cx="307.9" cy="221.3" r="2.9" fill="#9aa0a6" fill-opacity="0.2" stroke="none" stroke-width="0.8"/><circle cx="321.2" cy="287.9" r="3.3" fill="#9aa0a6" fill-opacity="0.2" stroke="none" stroke-width="0.8"/><circle cx="306.4" cy="258.6" r="3.1" fill="#9aa0a6" fill-opacity="0.2" stroke="none" stroke-width="0.8"/><circle cx="226.6" cy="232.3" r="4.4" fill="#D55E00" fill-opacity="0.55" stroke="none" stroke-width="0.8"/><circle cx="321.2" cy="224.7" r="2.8" fill="#9aa0a6" fill-opacity="0.2" stroke="none" stroke-width="0.8"/><circle cx="305.3" cy="285.7" r="3.1" fill="#9aa0a6" fill-opacity="0.2" stroke="none" stroke-width="0.8"/><circle cx="322.6" cy="241.5" r="3.0" fill="#9aa0a6" fill-opacity="0.2" stroke="none" stroke-width="0.8"/><circle cx="212.6" cy="246.5" r="4.9" fill="#D55E00" fill-opacity="0.55" stroke="none" stroke-width="0.8"/><circle cx="302.4" cy="230.0" r="2.9" fill="#9aa0a6" fill-opacity="0.2" stroke="none" stroke-width="0.8"/><circle cx="303.5" cy="241.7" r="3.0" fill="#9aa0a6" fill-opacity="0.2" stroke="none" stroke-width="0.8"/><circle cx="324.5" cy="230.4" r="2.9" fill="#9aa0a6" fill-opacity="0.2" stroke="none" stroke-width="0.8"/><circle cx="301.3" cy="249.4" r="3.1" fill="#9aa0a6" fill-opacity="0.2" stroke="none" stroke-width="0.8"/><circle cx="304.2" cy="254.3" r="3.4" fill="#9aa0a6" fill-opacity="0.2" stroke="none" stroke-width="0.8"/><circle cx="167.7" cy="237.2" r="3.3" fill="#D55E00" fill-opacity="0.55" stroke="none" stroke-width="0.8"/><circle cx="300.6" cy="248.0" r="2.8" fill="#9aa0a6" fill-opacity="0.2" stroke="none" stroke-width="0.8"/><circle cx="349.9" cy="244.7" r="3.0" fill="#9aa0a6" fill-opacity="0.2" stroke="none" stroke-width="0.8"/><circle cx="345.5" cy="266.9" r="3.1" fill="#9aa0a6" fill-opacity="0.2" stroke="none" stroke-width="0.8"/><circle cx="312.3" cy="255.1" r="3.2" fill="#9aa0a6" fill-opacity="0.2" stroke="none" stroke-width="0.8"/><circle cx="331.5" cy="203.1" r="3.1" fill="#9aa0a6" fill-opacity="0.2" stroke="none" stroke-width="0.8"/><circle cx="348.0" cy="217.6" r="2.9" fill="#9aa0a6" fill-opacity="0.2" stroke="none" stroke-width="0.8"/><circle cx="300.2" cy="284.9" r="2.9" fill="#9aa0a6" fill-opacity="0.2" stroke="none" stroke-width="0.8"/><circle cx="310.1" cy="216.0" r="2.9" fill="#9aa0a6" fill-opacity="0.2" stroke="none" stroke-width="0.8"/><circle cx="341.0" cy="258.4" r="2.9" fill="#9aa0a6" fill-opacity="0.2" stroke="none" stroke-width="0.8"/><circle cx="313.4" cy="277.3" r="3.5" fill="#9aa0a6" fill-opacity="0.2" stroke="none" stroke-width="0.8"/><circle cx="245.7" cy="215.1" r="3.3" fill="#D55E00" fill-opacity="0.55" stroke="none" stroke-width="0.8"/><circle cx="251.6" cy="230.2" r="3.6" fill="#9aa0a6" fill-opacity="0.2" stroke="none" stroke-width="0.8"/><circle cx="nan" cy="nan" r="nan" fill="#9aa0a6" fill-opacity="0.2" stroke="none" stroke-width="0.8"/><circle cx="nan" cy="nan" r="nan" fill="#9aa0a6" fill-opacity="0.2" stroke="none" stroke-width="0.8"/><circle cx="nan" cy="nan" r="nan" fill="#9aa0a6" fill-opacity="0.2" stroke="none" stroke-width="0.8"/><circle cx="nan" cy="nan" r="nan" fill="#9aa0a6" fill-opacity="0.2" stroke="none" stroke-width="0.8"/><circle cx="305.7" cy="268.2" r="3.2" fill="#9aa0a6" fill-opacity="0.2" stroke="none" stroke-width="0.8"/><circle cx="282.2" cy="267.1" r="3.2" fill="#9aa0a6" fill-opacity="0.2" stroke="none" stroke-width="0.8"/><circle cx="307.6" cy="209.4" r="3.0" fill="#9aa0a6" fill-opacity="0.2" stroke="none" stroke-width="0.8"/><circle cx="220.3" cy="211.9" r="5.6" fill="#D55E00" fill-opacity="0.55" stroke="none" stroke-width="0.8"/><circle cx="308.7" cy="210.9" r="2.9" fill="#9aa0a6" fill-opacity="0.2" stroke="none" stroke-width="0.8"/><circle cx="324.8" cy="240.8" r="3.0" fill="#9aa0a6" fill-opacity="0.2" stroke="none" stroke-width="0.8"/><circle cx="349.1" cy="237.4" r="3.0" fill="#9aa0a6" fill-opacity="0.2" stroke="none" stroke-width="0.8"/><circle cx="350.2" cy="281.0" r="3.2" fill="#9aa0a6" fill-opacity="0.2" stroke="none" stroke-width="0.8"/><circle cx="213.3" cy="214.5" r="4.0" fill="#D55E00" fill-opacity="0.55" stroke="none" stroke-width="0.8"/><circle cx="334.0" cy="300.4" r="2.9" fill="#9aa0a6" fill-opacity="0.2" stroke="none" stroke-width="0.8"/><circle cx="319.0" cy="227.6" r="3.0" fill="#9aa0a6" fill-opacity="0.2" stroke="none" stroke-width="0.8"/><circle cx="343.6" cy="256.5" r="2.9" fill="#9aa0a6" fill-opacity="0.2" stroke="none" stroke-width="0.8"/><circle cx="266.3" cy="260.8" r="3.1" fill="#9aa0a6" fill-opacity="0.2" stroke="none" stroke-width="0.8"/><circle cx="350.6" cy="258.0" r="3.4" fill="#9aa0a6" fill-opacity="0.2" stroke="none" stroke-width="0.8"/><circle cx="277.4" cy="241.9" r="2.9" fill="#9aa0a6" fill-opacity="0.2" stroke="none" stroke-width="0.8"/><circle cx="338.8" cy="269.6" r="2.8" fill="#9aa0a6" fill-opacity="0.2" stroke="none" stroke-width="0.8"/><circle cx="315.6" cy="207.6" r="2.9" fill="#9aa0a6" fill-opacity="0.2" stroke="none" stroke-width="0.8"/><circle cx="344.4" cy="214.9" r="2.8" fill="#9aa0a6" fill-opacity="0.2" stroke="none" stroke-width="0.8"/><circle cx="315.3" cy="272.0" r="3.0" fill="#9aa0a6" fill-opacity="0.2" stroke="none" stroke-width="0.8"/><circle cx="268.9" cy="209.2" r="3.8" fill="#9aa0a6" fill-opacity="0.2" stroke="none" stroke-width="0.8"/><circle cx="308.3" cy="229.4" r="2.9" fill="#9aa0a6" fill-opacity="0.2" stroke="none" stroke-width="0.8"/><circle cx="334.0" cy="242.9" r="2.8" fill="#9aa0a6" fill-opacity="0.2" stroke="none" stroke-width="0.8"/><circle cx="398.4" cy="304.7" r="2.5" fill="#9aa0a6" fill-opacity="0.2" stroke="none" stroke-width="0.8"/><circle cx="213.3" cy="216.6" r="4.1" fill="#D55E00" fill-opacity="0.55" stroke="none" stroke-width="0.8"/><circle cx="351.0" cy="183.1" r="2.9" fill="#9aa0a6" fill-opacity="0.2" stroke="none" stroke-width="0.8"/><circle cx="335.2" cy="276.3" r="2.8" fill="#9aa0a6" fill-opacity="0.2" stroke="none" stroke-width="0.8"/><circle cx="321.9" cy="237.4" r="3.0" fill="#9aa0a6" fill-opacity="0.2" stroke="none" stroke-width="0.8"/><circle cx="310.5" cy="228.6" r="2.9" fill="#9aa0a6" fill-opacity="0.2" stroke="none" stroke-width="0.8"/><circle cx="317.1" cy="249.0" r="3.0" fill="#9aa0a6" fill-opacity="0.2" stroke="none" stroke-width="0.8"/><circle cx="331.5" cy="233.1" r="2.9" fill="#9aa0a6" fill-opacity="0.2" stroke="none" stroke-width="0.8"/><circle cx="329.3" cy="203.1" r="2.9" fill="#9aa0a6" fill-opacity="0.2" stroke="none" stroke-width="0.8"/><circle cx="402.1" cy="315.9" r="2.6" fill="#9aa0a6" fill-opacity="0.2" stroke="none" stroke-width="0.8"/><circle cx="276.6" cy="229.2" r="2.9" fill="#9aa0a6" fill-opacity="0.2" stroke="none" stroke-width="0.8"/><circle cx="323.7" cy="264.7" r="2.8" fill="#9aa0a6" fill-opacity="0.2" stroke="none" stroke-width="0.8"/><circle cx="345.8" cy="259.6" r="3.1" fill="#9aa0a6" fill-opacity="0.2" stroke="none" stroke-width="0.8"/><circle cx="350.2" cy="220.4" r="3.0" fill="#9aa0a6" fill-opacity="0.2" stroke="none" stroke-width="0.8"/><circle cx="332.2" cy="269.6" r="2.8" fill="#9aa0a6" fill-opacity="0.2" stroke="none" stroke-width="0.8"/><circle cx="307.6" cy="214.9" r="2.9" fill="#9aa0a6" fill-opacity="0.2" stroke="none" stroke-width="0.8"/><circle cx="341.0" cy="209.0" r="2.8" fill="#9aa0a6" fill-opacity="0.2" stroke="none" stroke-width="0.8"/><circle cx="313.1" cy="246.5" r="3.0" fill="#9aa0a6" fill-opacity="0.2" stroke="none" stroke-width="0.8"/><circle cx="232.8" cy="208.4" r="3.4" fill="#9aa0a6" fill-opacity="0.2" stroke="none" stroke-width="0.8"/><circle cx="316.0" cy="213.9" r="2.8" fill="#9aa0a6" fill-opacity="0.2" stroke="none" stroke-width="0.8"/><circle cx="320.8" cy="273.5" r="2.8" fill="#9aa0a6" fill-opacity="0.2" stroke="none" stroke-width="0.8"/><circle cx="204.1" cy="215.1" r="4.9" fill="#D55E00" fill-opacity="0.55" stroke="none" stroke-width="0.8"/><circle cx="303.5" cy="242.5" r="2.9" fill="#9aa0a6" fill-opacity="0.2" stroke="none" stroke-width="0.8"/><circle cx="400.7" cy="274.5" r="2.6" fill="#9aa0a6" fill-opacity="0.2" stroke="none" stroke-width="0.8"/><circle cx="321.9" cy="255.3" r="2.8" fill="#9aa0a6" fill-opacity="0.2" stroke="none" stroke-width="0.8"/><circle cx="316.0" cy="267.8" r="3.0" fill="#9aa0a6" fill-opacity="0.2" stroke="none" stroke-width="0.8"/><circle cx="333.3" cy="217.8" r="2.9" fill="#9aa0a6" fill-opacity="0.2" stroke="none" stroke-width="0.8"/><circle cx="337.4" cy="212.7" r="2.8" fill="#9aa0a6" fill-opacity="0.2" stroke="none" stroke-width="0.8"/><circle cx="324.1" cy="217.6" r="2.9" fill="#9aa0a6" fill-opacity="0.2" stroke="none" stroke-width="0.8"/><circle cx="252.7" cy="248.0" r="2.9" fill="#9aa0a6" fill-opacity="0.2" stroke="none" stroke-width="0.8"/><circle cx="315.3" cy="271.6" r="3.0" fill="#9aa0a6" fill-opacity="0.2" stroke="none" stroke-width="0.8"/><circle cx="274.1" cy="189.3" r="3.4" fill="#9aa0a6" fill-opacity="0.2" stroke="none" stroke-width="0.8"/><circle cx="344.4" cy="263.1" r="3.2" fill="#9aa0a6" fill-opacity="0.2" stroke="none" stroke-width="0.8"/><circle cx="321.5" cy="270.6" r="2.8" fill="#9aa0a6" fill-opacity="0.2" stroke="none" stroke-width="0.8"/><circle cx="333.7" cy="207.2" r="2.9" fill="#9aa0a6" fill-opacity="0.2" stroke="none" stroke-width="0.8"/><circle cx="286.6" cy="213.5" r="2.7" fill="#9aa0a6" fill-opacity="0.2" stroke="none" stroke-width="0.8"/><circle cx="344.0" cy="280.4" r="3.0" fill="#9aa0a6" fill-opacity="0.2" stroke="none" stroke-width="0.8"/><circle cx="200.1" cy="230.8" r="4.1" fill="#D55E00" fill-opacity="0.55" stroke="none" stroke-width="0.8"/><circle cx="399.9" cy="220.7" r="2.5" fill="#9aa0a6" fill-opacity="0.2" stroke="none" stroke-width="0.8"/><circle cx="306.8" cy="226.4" r="2.9" fill="#9aa0a6" fill-opacity="0.2" stroke="none" stroke-width="0.8"/><circle cx="317.1" cy="256.9" r="2.8" fill="#9aa0a6" fill-opacity="0.2" stroke="none" stroke-width="0.8"/><circle cx="207.8" cy="231.3" r="5.5" fill="#D55E00" fill-opacity="0.55" stroke="none" stroke-width="0.8"/><circle cx="311.2" cy="277.7" r="2.8" fill="#9aa0a6" fill-opacity="0.2" stroke="none" stroke-width="0.8"/><circle cx="302.0" cy="235.9" r="2.8" fill="#9aa0a6" fill-opacity="0.2" stroke="none" stroke-width="0.8"/><circle cx="392.6" cy="323.4" r="2.5" fill="#9aa0a6" fill-opacity="0.2" stroke="none" stroke-width="0.8"/><circle cx="300.6" cy="269.4" r="3.1" fill="#9aa0a6" fill-opacity="0.2" stroke="none" stroke-width="0.8"/><circle cx="204.9" cy="207.0" r="4.8" fill="#D55E00" fill-opacity="0.55" stroke="none" stroke-width="0.8"/><circle cx="305.3" cy="239.2" r="2.9" fill="#9aa0a6" fill-opacity="0.2" stroke="none" stroke-width="0.8"/><circle cx="290.6" cy="207.2" r="2.8" fill="#9aa0a6" fill-opacity="0.2" stroke="none" stroke-width="0.8"/><circle cx="311.6" cy="247.8" r="2.9" fill="#9aa0a6" fill-opacity="0.2" stroke="none" stroke-width="0.8"/><circle cx="316.0" cy="219.0" r="2.7" fill="#9aa0a6" fill-opacity="0.2" stroke="none" stroke-width="0.8"/><circle cx="391.1" cy="318.3" r="2.5" fill="#9aa0a6" fill-opacity="0.2" stroke="none" stroke-width="0.8"/><circle cx="313.8" cy="266.5" r="3.0" fill="#9aa0a6" fill-opacity="0.2" stroke="none" stroke-width="0.8"/><circle cx="202.7" cy="220.9" r="3.8" fill="#D55E00" fill-opacity="0.55" stroke="none" stroke-width="0.8"/><circle cx="323.0" cy="226.0" r="2.7" fill="#9aa0a6" fill-opacity="0.2" stroke="none" stroke-width="0.8"/><circle cx="219.6" cy="200.5" r="5.0" fill="#D55E00" fill-opacity="0.55" stroke="none" stroke-width="0.8"/><circle cx="240.6" cy="191.9" r="5.0" fill="#D55E00" fill-opacity="0.55" stroke="none" stroke-width="0.8"/><circle cx="297.6" cy="192.5" r="2.8" fill="#9aa0a6" fill-opacity="0.2" stroke="none" stroke-width="0.8"/><circle cx="295.4" cy="219.8" r="2.7" fill="#9aa0a6" fill-opacity="0.2" stroke="none" stroke-width="0.8"/><circle cx="339.6" cy="246.5" r="3.0" fill="#9aa0a6" fill-opacity="0.2" stroke="none" stroke-width="0.8"/><circle cx="314.2" cy="231.7" r="2.9" fill="#9aa0a6" fill-opacity="0.2" stroke="none" stroke-width="0.8"/><circle cx="324.1" cy="253.1" r="3.1" fill="#9aa0a6" fill-opacity="0.2" stroke="none" stroke-width="0.8"/><circle cx="413.2" cy="220.4" r="3.1" fill="#9aa0a6" fill-opacity="0.2" stroke="none" stroke-width="0.8"/><circle cx="312.3" cy="236.8" r="2.9" fill="#9aa0a6" fill-opacity="0.2" stroke="none" stroke-width="0.8"/><circle cx="332.9" cy="315.5" r="2.9" fill="#9aa0a6" fill-opacity="0.2" stroke="none" stroke-width="0.8"/><circle cx="299.5" cy="277.7" r="2.9" fill="#9aa0a6" fill-opacity="0.2" stroke="none" stroke-width="0.8"/><circle cx="348.0" cy="278.8" r="2.9" fill="#9aa0a6" fill-opacity="0.2" stroke="none" stroke-width="0.8"/><circle cx="310.5" cy="256.9" r="3.0" fill="#9aa0a6" fill-opacity="0.2" stroke="none" stroke-width="0.8"/><circle cx="356.5" cy="225.1" r="3.1" fill="#9aa0a6" fill-opacity="0.2" stroke="none" stroke-width="0.8"/><circle cx="366.8" cy="263.1" r="3.0" fill="#9aa0a6" fill-opacity="0.2" stroke="none" stroke-width="0.8"/><circle cx="295.0" cy="261.0" r="3.0" fill="#9aa0a6" fill-opacity="0.2" stroke="none" stroke-width="0.8"/><circle cx="313.1" cy="238.8" r="3.0" fill="#9aa0a6" fill-opacity="0.2" stroke="none" stroke-width="0.8"/><circle cx="316.8" cy="295.7" r="3.0" fill="#9aa0a6" fill-opacity="0.2" stroke="none" stroke-width="0.8"/><circle cx="196.0" cy="227.4" r="5.3" fill="#D55E00" fill-opacity="0.55" stroke="none" stroke-width="0.8"/><circle cx="339.9" cy="238.0" r="3.0" fill="#9aa0a6" fill-opacity="0.2" stroke="none" stroke-width="0.8"/><circle cx="340.7" cy="294.3" r="3.0" fill="#9aa0a6" fill-opacity="0.2" stroke="none" stroke-width="0.8"/><circle cx="298.4" cy="278.6" r="3.1" fill="#9aa0a6" fill-opacity="0.2" stroke="none" stroke-width="0.8"/><circle cx="183.5" cy="222.7" r="3.8" fill="#D55E00" fill-opacity="0.55" stroke="none" stroke-width="0.8"/><circle cx="361.6" cy="217.0" r="3.0" fill="#9aa0a6" fill-opacity="0.2" stroke="none" stroke-width="0.8"/><circle cx="339.9" cy="261.0" r="2.9" fill="#9aa0a6" fill-opacity="0.2" stroke="none" stroke-width="0.8"/><circle cx="331.1" cy="244.5" r="3.0" fill="#9aa0a6" fill-opacity="0.2" stroke="none" stroke-width="0.8"/><circle cx="342.5" cy="251.0" r="3.0" fill="#9aa0a6" fill-opacity="0.2" stroke="none" stroke-width="0.8"/><circle cx="291.4" cy="208.0" r="2.8" fill="#9aa0a6" fill-opacity="0.2" stroke="none" stroke-width="0.8"/><circle cx="366.1" cy="227.2" r="3.2" fill="#9aa0a6" fill-opacity="0.2" stroke="none" stroke-width="0.8"/><circle cx="341.4" cy="243.3" r="3.2" fill="#9aa0a6" fill-opacity="0.2" stroke="none" stroke-width="0.8"/><circle cx="367.5" cy="259.2" r="3.0" fill="#9aa0a6" fill-opacity="0.2" stroke="none" stroke-width="0.8"/><circle cx="301.3" cy="278.6" r="2.9" fill="#9aa0a6" fill-opacity="0.2" stroke="none" stroke-width="0.8"/><circle cx="330.4" cy="229.0" r="2.9" fill="#9aa0a6" fill-opacity="0.2" stroke="none" stroke-width="0.8"/><circle cx="342.9" cy="243.1" r="2.8" fill="#9aa0a6" fill-opacity="0.2" stroke="none" stroke-width="0.8"/><circle cx="361.6" cy="307.1" r="3.0" fill="#9aa0a6" fill-opacity="0.2" stroke="none" stroke-width="0.8"/><circle cx="314.9" cy="298.1" r="3.0" fill="#9aa0a6" fill-opacity="0.2" stroke="none" stroke-width="0.8"/><circle cx="375.6" cy="208.2" r="3.1" fill="#9aa0a6" fill-opacity="0.2" stroke="none" stroke-width="0.8"/><circle cx="326.3" cy="270.6" r="2.8" fill="#9aa0a6" fill-opacity="0.2" stroke="none" stroke-width="0.8"/><circle cx="321.2" cy="258.2" r="2.9" fill="#9aa0a6" fill-opacity="0.2" stroke="none" stroke-width="0.8"/><circle cx="367.5" cy="233.3" r="3.3" fill="#9aa0a6" fill-opacity="0.2" stroke="none" stroke-width="0.8"/><circle cx="357.2" cy="229.2" r="3.2" fill="#9aa0a6" fill-opacity="0.2" stroke="none" stroke-width="0.8"/><circle cx="413.2" cy="323.2" r="2.8" fill="#9aa0a6" fill-opacity="0.2" stroke="none" stroke-width="0.8"/><circle cx="352.4" cy="321.8" r="2.9" fill="#9aa0a6" fill-opacity="0.2" stroke="none" stroke-width="0.8"/><circle cx="314.9" cy="263.1" r="3.0" fill="#9aa0a6" fill-opacity="0.2" stroke="none" stroke-width="0.8"/><text x="412" y="58" text-anchor="end" font-family="-apple-system,Segoe UI,Helvetica,Arial,sans-serif" font-size="11" fill="#009E73">ε = ε_coast − 0.13 (frozen)</text><rect x="66" y="305" width="12" height="12" rx="2" fill="#D55E00"/><text x="84" y="315" font-family="-apple-system,Segoe UI,Helvetica,Arial,sans-serif" font-size="11" fill="#222222">real descents (s̄ ≥ 3%, n = 21)</text><rect x="66" y="323" width="12" height="12" rx="2" fill="#9aa0a6"/><text x="84" y="333" font-family="-apple-system,Segoe UI,Helvetica,Arial,sans-serif" font-size="11" fill="#222222">gentle rides (bulk)</text><text x="66" y="350" font-family="-apple-system,Segoe UI,Helvetica,Arial,sans-serif" font-size="10" fill="#9aa0a6">most of this rider's riding is gentle — measured ε_bal sits far below the line</text></svg>
